name Walk7.mot
datacolumns 19
datarows 10
range 3.09700000 3.10600000
endheader

                time	   L_ground_force_vx	   L_ground_force_vy	   L_ground_force_vz	   L_ground_force_px	   L_ground_force_py	   L_ground_force_pz	   R_ground_force_vx	   R_ground_force_vy	   R_ground_force_vz	   R_ground_force_px	   R_ground_force_py	   R_ground_force_pz	   L_ground_torque_x	   L_ground_torque_y	   L_ground_torque_z	   R_ground_torque_x	   R_ground_torque_y	   R_ground_torque_z	
          3.09700000	          0.00052552	          0.00773265	          0.00128026	         -0.00012167	          0.00000000	         -0.00004660	        -25.47529048	        881.92917947	        -61.68928391	          0.23879435	          0.00000000	          0.10555737	          0.00000000	          0.00023950	          0.00000000	          0.00000000	          8.32501627	          0.00000000	
          3.09800000	         -0.00019048	          0.00544587	          0.00112205	         -0.00011378	          0.00000000	         -0.00004375	        -25.23969721	        881.03074505	        -61.62023711	          0.23916768	          0.00000000	          0.10563906	          0.00000000	          0.00022351	          0.00000000	          0.00000000	          8.29642004	          0.00000000	
          3.09900000	         -0.00084488	          0.00333293	          0.00097304	         -0.00010612	          0.00000000	         -0.00004098	        -25.00371054	        880.17573577	        -61.55408606	          0.23953862	          0.00000000	          0.10572010	          0.00000000	          0.00020803	          0.00000000	          0.00000000	          8.26840408	          0.00000000	
          3.10000000	         -0.00144045	          0.00138705	          0.00083303	         -0.00009872	          0.00000000	         -0.00003829	        -24.76727521	        879.36452077	        -61.49069568	          0.23990710	          0.00000000	          0.10580043	          0.00000000	          0.00019308	          0.00000000	          0.00000000	          8.24095746	          0.00000000	
          3.10100000	         -0.00197994	         -0.00039862	          0.00070177	         -0.00009158	          0.00000000	         -0.00003569	        -24.53033896	        878.59746292	        -61.42994388	          0.24027304	          0.00000000	          0.10588003	          0.00000000	          0.00017868	          0.00000000	          0.00000000	          8.21406912	          0.00000000	
          3.10200000	         -0.00246607	         -0.00203096	          0.00057902	         -0.00008469	          0.00000000	         -0.00003317	        -24.29285219	        877.87492147	        -61.37172113	          0.24063638	          0.00000000	          0.10595885	          0.00000000	          0.00016483	          0.00000000	          0.00000000	          8.18772760	          0.00000000	
          3.10300000	         -0.00290156	         -0.00351683	          0.00046452	         -0.00007807	          0.00000000	         -0.00003074	        -24.05476779	        877.19725392	        -61.31593013	          0.24099705	          0.00000000	          0.10603687	          0.00000000	          0.00015153	          0.00000000	          0.00000000	          8.16192086	          0.00000000	
          3.10400000	         -0.00328905	         -0.00486309	          0.00035800	         -0.00007172	          0.00000000	         -0.00002840	        -23.81604123	        876.56481662	        -61.26248572	          0.24135500	          0.00000000	          0.10611404	          0.00000000	          0.00013878	          0.00000000	          0.00000000	          8.13663631	          0.00000000	
          3.10500000	         -0.00363117	         -0.00607650	          0.00025918	         -0.00006564	          0.00000000	         -0.00002616	        -23.57663072	        875.97796415	        -61.21131502	          0.24171016	          0.00000000	          0.10619034	          0.00000000	          0.00012660	          0.00000000	          0.00000000	          8.11186079	          0.00000000	
          3.10600000	         -0.00393048	         -0.00716378	          0.00016779	         -0.00005982	          0.00000000	         -0.00002400	        -23.33649731	        875.43704760	        -61.16235790	          0.24206248	          0.00000000	          0.10626575	          0.00000000	          0.00011498	          0.00000000	          0.00000000	          8.08758063	          0.00000000	
